# 3ds Max Wavefront OBJ Exporter v0.99 - (c)2007 guruware
# File Created: 21.06.2023 23:12:20

mtllib power up.mtl

#
# object power_up
#

v  377.0340 222.6695 58.7898
v  377.0340 228.2585 0.7461
v  398.6171 205.8837 5.9144
v  398.6171 201.6920 49.4472
v  463.3665 155.5020 23.0314
v  420.2003 186.8841 11.4076
v  420.2003 219.9398 29.2360
v  355.4509 205.8837 5.9144
v  355.4509 255.4673 32.6569
v  377.0340 294.3699 36.4028
v  290.7014 155.5020 23.0314
v  333.8677 184.0896 40.4295
v  333.8677 219.9398 29.2360
v  398.6171 255.4673 32.6569
v  355.4509 201.6920 49.4472
v  333.8677 186.8841 11.4077
v  420.2003 184.0896 40.4295
v  377.0340 91.1486 35.5973
v  377.0340 94.7286 -1.5829
v  381.5909 127.8914 3.9557
v  381.5909 124.7588 36.4883
v  432.3346 93.1817 17.0306
v  404.6843 113.2836 9.5850
v  404.6843 134.4576 21.0050
v  321.7334 93.1817 17.0306
v  349.3837 111.4936 28.1751
v  349.3837 134.4576 21.0050
v  372.4771 124.7588 36.4883
v  372.4771 127.8914 3.9557
v  349.3837 113.2836 9.5850
v  363.2088 122.7689 33.9514
v  363.2088 157.2148 23.1963
v  404.6843 111.4936 28.1751
v  390.8592 125.4539 6.0663
v  390.8592 157.2148 23.1963
v  363.2088 125.4539 6.0663
v  390.8592 122.7689 33.9514
v  370.1214 129.4875 36.9436
v  370.1214 132.6200 4.4110
v  383.9466 132.6200 4.4110
v  383.9466 129.4875 36.9436
v  377.0340 182.1340 25.5957
v  377.0340 139.7861 2.7557
v  377.0340 136.2061 39.9358
# 44 vertices

vn 0.0000 -0.2516 0.9678
vn -0.0000 -0.0623 -0.9981
vn -0.1641 -0.3861 -0.9077
vn -0.1641 -0.5523 0.8174
vn 0.7415 -0.6679 -0.0643
vn -0.1235 -0.4244 -0.8970
vn 0.8508 0.5230 0.0504
vn 0.1641 -0.3861 -0.9077
vn -0.8715 0.4881 0.0470
vn 1.0000 0.0000 -0.0000
vn -0.7415 -0.6679 -0.0643
vn 0.1235 -0.5878 0.7995
vn -0.8508 0.5230 0.0504
vn 0.8715 0.4881 0.0470
vn 0.1641 -0.5523 0.8174
vn 0.1235 -0.4244 -0.8970
vn -0.1235 -0.5878 0.7995
vn 0.0000 -0.8813 0.4725
vn 0.0000 -0.7750 -0.6320
vn 0.7660 -0.3095 0.5634
vn 0.7660 -0.1963 -0.6121
vn -0.7660 -0.1963 -0.6121
vn -0.7660 -0.3095 0.5634
vn -0.5296 -0.2464 0.8117
vn -0.5297 -0.0870 -0.8437
vn 0.5296 -0.0870 -0.8438
vn 0.5296 -0.2464 0.8117
vn -0.0000 0.3659 -0.9306
vn 0.0000 0.1816 0.9834
# 29 vertex normals

vt 0.5000 0.0000 1.0000
vt 0.0000 0.0000 1.0000
vt -0.0625 0.0000 1.0000
vt 0.3125 0.0000 1.0000
vt -0.2500 0.0000 1.0000
vt -0.1250 0.0000 1.0000
vt 0.1250 0.5000 0.5000
vt 0.0625 0.0000 1.0000
vt 0.4375 0.7500 0.2500
vt 0.5000 1.0000 0.0000
vt 0.2500 0.0000 1.0000
vt 0.3750 0.0000 1.0000
vt 0.3750 0.5000 0.5000
vt 0.5625 0.0000 1.0000
vt 0.5625 0.7500 0.2500
vt 0.4375 0.0000 1.0000
vt 0.1250 0.0000 1.0000
vt 0.3125 0.7500 0.2500
vt 0.6250 0.0000 1.0000
vt 0.7500 0.0000 1.0000
vt 0.6250 0.5000 0.5000
vt -0.0312 0.0000 1.0000
vt 0.4062 0.0000 1.0000
vt 0.4688 0.0000 1.0000
vt 0.0313 0.0000 1.0000
vt 0.5312 0.0000 1.0000
# 26 texture coords

o power_up
g power_up
usemtl wire_177148027
s 1
f 1/1/1 2/2/2 3/3/3 4/4/4 
s 2
f 5/5/5 6/6/6 7/7/7 
s 4
f 2/2/2 8/8/8 9/9/9 10/10/10 10/10/10 
s 2
f 11/11/11 12/12/12 13/13/13 
s 4
f 1/1/1 4/14/4 14/15/14 10/10/10 10/10/10 
s 1
f 10/10/10 10/10/10 10/10/10 10/10/10 
s 8
f 1/1/1 15/16/15 8/8/8 2/2/2 
s 4
f 16/17/16 11/11/11 13/13/13 
s 2
f 12/12/12 15/16/15 9/9/9 13/13/13 
s 8
f 12/12/12 11/11/11 16/17/16 
s 1
f 6/6/6 5/5/5 17/17/17 
s 2
f 6/6/6 3/3/3 14/18/14 7/7/7 
s 4
f 17/19/17 5/20/5 7/21/7 
f 8/8/8 16/17/16 13/13/13 9/9/9 
s 8
f 15/16/15 12/12/12 16/17/16 8/8/8 
s 2
f 15/16/15 1/1/1 10/10/10 10/10/10 9/9/9 
s 1
f 3/3/3 6/6/6 17/17/17 4/4/4 
s 4
f 4/14/4 17/19/17 7/21/7 14/15/14 
s 2
f 3/3/3 2/2/2 10/10/10 10/10/10 14/18/14 
s 1
f 18/1/18 19/2/19 20/22/20 21/23/21 
s 2
f 22/5/5 23/6/6 24/7/7 
f 25/11/11 26/12/12 27/13/13 
s 4
f 18/1/18 28/24/22 29/25/23 19/2/19 
s 8
f 30/17/16 25/11/11 27/13/13 
s 2
f 26/12/12 31/16/15 32/9/9 27/13/13 
s 1
f 26/12/12 25/11/11 30/17/16 
s 4
f 23/6/6 22/5/5 33/17/17 
s 2
f 23/6/6 34/3/3 35/18/14 24/7/7 
s 8
f 33/19/17 22/20/5 24/21/7 
f 36/8/8 30/17/16 27/13/13 32/9/9 
s 1
f 31/16/15 26/12/12 30/17/16 36/8/8 
s 4
f 34/3/3 23/6/6 33/17/17 37/4/4 
s 8
f 37/14/4 33/19/17 24/21/7 35/15/14 
s 1
f 38/24/24 31/16/15 36/8/8 39/25/25 
s 4
f 40/22/26 34/3/3 37/4/4 41/23/27 
s 8
f 39/25/25 36/8/8 32/9/9 42/10/10 42/10/10 43/2/28 
f 41/26/27 37/14/4 35/15/14 42/10/10 42/10/10 44/1/29 
s 1
f 42/10/10 42/10/10 42/10/10 42/10/10 
s 2
f 38/24/24 44/1/29 42/10/10 42/10/10 32/9/9 31/16/15 
f 40/22/26 43/2/28 42/10/10 42/10/10 35/18/14 34/3/3 
f 43/2/28 40/22/26 20/22/20 19/2/19 
s 1
f 40/22/26 41/23/27 21/23/21 20/22/20 
s 8
f 41/23/27 44/1/29 18/1/18 21/23/21 
s 2
f 44/1/29 38/24/24 28/24/22 18/1/18 
s 4
f 38/24/24 39/25/25 29/25/23 28/24/22 
s 8
f 39/25/25 43/2/28 19/2/19 29/25/23 
# 34 polygons - 12 triangles

